<?xml version="1.0" encoding="iso-8859-1"?>
<!-- Generator: Adobe Illustrator 18.1.1, SVG Export Plug-In . SVG Version: 6.00 Build 0)  -->
<svg xmlns="http://www.w3.org/2000/svg" xmlns:xlink="http://www.w3.org/1999/xlink" version="1.1" id="Capa_1" x="0px" y="0px" viewBox="0 0 31.262 31.262" style="enable-background:new 0 0 31.262 31.262;" xml:space="preserve" width="512px" height="512px">
<g>
	<g id="c173_graphic">
		<path d="M16.374,1.709v-0.96C16.374,0.334,16.038,0,15.632,0c-0.414,0-0.746,0.334-0.746,0.749v0.96H1.851V5.56h27.561V1.709    H16.374z" fill="#FFFFFF"/>
		<path d="M4.08,22.073h10.144v4.781h-3.665V26.17H9.194v5.092h1.364v-2.545h10.279v2.545h1.366V26.17h-1.366v0.685h-3.802v-4.781    h10.14V6.677H4.08V22.073z M18.899,11.323h6.693v1.529h-6.693V11.323z M18.899,14.148h6.693v1.531h-6.693V14.148z M18.865,17.123    h6.692v1.529h-6.692V17.123z M12.175,8.896c2.664,0,4.824,2.156,4.824,4.82h-4.824C12.176,13.716,12.176,8.896,12.175,8.896z     M10.819,10.207v4.824h4.824c0,2.667-2.159,4.824-4.824,4.824s-4.822-2.157-4.822-4.824C5.997,12.366,8.155,10.207,10.819,10.207z    " fill="#FFFFFF"/>
	</g>
	<g id="Capa_1_252_">
	</g>
</g>
<g>
</g>
<g>
</g>
<g>
</g>
<g>
</g>
<g>
</g>
<g>
</g>
<g>
</g>
<g>
</g>
<g>
</g>
<g>
</g>
<g>
</g>
<g>
</g>
<g>
</g>
<g>
</g>
<g>
</g>
</svg>
