<?xml version="1.0" encoding="iso-8859-1"?>
<!-- Generator: Adobe Illustrator 19.0.0, SVG Export Plug-In . SVG Version: 6.00 Build 0)  -->
<svg version="1.1" id="Layer_1" xmlns="http://www.w3.org/2000/svg" xmlns:xlink="http://www.w3.org/1999/xlink" x="0px" y="0px"
	 viewBox="0 0 503.916 503.916" style="enable-background:new 0 0 503.916 503.916;" xml:space="preserve">
<g>
	<path style="fill:#DAE1E5;" d="M160.586,485.964V69.421c0-9.589,7.775-17.356,17.356-17.356h168.11l-13.659-39.198
		C329.911,3.607,320.4-1.886,311.14,0.596L17.756,67.443C8.496,69.924,3.003,79.436,5.485,88.695L113.3,491.049
		c2.473,9.259,11.993,14.753,21.252,12.271l28.941-7.758C161.662,492.81,160.586,489.513,160.586,485.964"/>
	<path style="fill:#E6EEF4;" d="M481.671,52.065H177.942c-9.589,0-17.356,7.767-17.356,17.356v416.542
		c0,9.589,7.767,17.356,17.356,17.356h303.729c9.589,0,17.356-7.767,17.356-17.356V69.421
		C499.027,59.832,491.26,52.065,481.671,52.065"/>
	<g>
		<path d="M472.993,86.78c0-4.793-3.885-8.678-8.678-8.678H308.112c-4.793,0-8.678,3.885-8.678,8.678
			c0,4.793,3.885,8.678,8.678,8.678h156.203l-8.678-8.678v259.81c0,4.793,3.885,8.678,8.678,8.678s8.678-3.885,8.678-8.678V86.78z"
			/>
		<path d="M186.62,469.101c0,4.802,3.9,8.692,8.703,8.678l173.559-0.495c4.793-0.014,8.667-3.91,8.653-8.703
			s-3.91-8.667-8.703-8.653l-173.559,0.495l8.703,8.678V208.762c0-4.793-3.885-8.678-8.678-8.678c-4.793,0-8.678,3.885-8.678,8.678
			V469.101z"/>
		<path d="M351.529,338.728c-0.495-0.321-1.067,0.165-0.85,0.72l14.388,36.838c1.267,2.543-0.581,5.545-3.428,5.545h-64.182
			c-2.846,0-4.695-3.003-3.419-5.545l11.984-36.925c0.182-0.555-0.417-0.998-0.894-0.677c-7.229,4.886-15.473,8.556-24.498,8.556
			c-27.995,0-52.285-23.509-50.532-51.86c0.981-15.941,11.134-29.618,24.663-38.105c13.572-8.513,24.741-9.19,35.996-6.465
			c-7.194-8.522-10.127-19.517-10.127-31.536c0-30.442,27.804-54.393,59.401-47.842c18.822,3.905,33.905,19.317,37.524,38.192
			c3.02,15.733,0.382,30.434-8.695,41.186c11.333-2.751,22.094-2.039,35.779,6.656c13.46,8.539,23.569,22.181,24.498,38.096
			c1.64,28.273-22.728,51.677-50.653,51.677C369.614,347.241,358.949,343.501,351.529,338.728"/>
		<path d="M237.772,82.896c-3.198-6.396-12.326-6.396-15.524,0l-34.712,69.424c-2.143,4.287-0.406,9.499,3.881,11.643
			c4.287,2.143,9.499,0.406,11.643-3.881l34.712-69.424h-15.524l34.712,69.424c2.143,4.287,7.356,6.024,11.643,3.881
			c4.287-2.143,6.024-7.356,3.881-11.643L237.772,82.896z"/>
		<path d="M247.638,143.528c4.793,0,8.678-3.885,8.678-8.678s-3.885-8.678-8.678-8.678h-34.712c-4.793,0-8.678,3.885-8.678,8.678
			s3.885,8.678,8.678,8.678H247.638z"/>
		<path d="M472.077,403.065c2.143-4.287,0.406-9.499-3.881-11.643c-4.287-2.143-9.499-0.406-11.643,3.881l-34.712,69.424
			c-2.143,4.287-0.406,9.499,3.881,11.643c4.287,2.143,9.499,0.406,11.643-3.881L472.077,403.065z"/>
		<path d="M421.841,472.488c2.143,4.287,7.356,6.024,11.643,3.881c4.287-2.143,6.024-7.356,3.881-11.643l-34.712-69.424
			c-2.143-4.287-7.356-6.024-11.643-3.881c-4.287,2.143-6.024,7.356-3.881,11.643L421.841,472.488z"/>
		<path d="M411.977,411.856c-4.793,0-8.678,3.885-8.678,8.678c0,4.793,3.885,8.678,8.678,8.678h34.712
			c4.793,0,8.678-3.885,8.678-8.678c0-4.793-3.885-8.678-8.678-8.678H411.977z"/>
	</g>
	<g>
		<path style="fill:#D71E00;" d="M96.322,325.931c14.987,55.044,21.724,79.891,29.845,110.209c1.24,4.63,5.998,7.377,10.628,6.137
			c4.63-1.24,7.377-5.998,6.137-10.628c-8.129-30.349-14.871-55.211-29.741-109.828c-15.114-55.512-21.658-79.642-29.729-109.76
			c-1.241-4.629-5.999-7.377-10.628-6.136c-4.629,1.241-7.377,5.999-6.136,10.628C74.776,246.702,81.324,270.846,96.322,325.931z"/>
		<path style="fill:#D71E00;" d="M83.532,81.738c-4.745-5.351-13.561-2.988-14.995,4.018l-15.56,76.045
			c-0.961,4.695,2.067,9.281,6.762,10.241s9.281-2.067,10.241-6.762l15.56-76.045l-14.995,4.018l51.495,58.073
			c3.18,3.586,8.664,3.915,12.25,0.735s3.915-8.664,0.735-12.25L83.532,81.738z"/>
		<path style="fill:#D71E00;" d="M108.753,137.752c4.63-1.24,7.377-5.998,6.137-10.628s-5.998-7.377-10.628-6.137l-33.532,8.982
			c-4.63,1.24-7.377,5.998-6.137,10.628c1.24,4.63,5.998,7.377,10.628,6.137L108.753,137.752z"/>
	</g>
</g>
<g>
</g>
<g>
</g>
<g>
</g>
<g>
</g>
<g>
</g>
<g>
</g>
<g>
</g>
<g>
</g>
<g>
</g>
<g>
</g>
<g>
</g>
<g>
</g>
<g>
</g>
<g>
</g>
<g>
</g>
</svg>
