<?xml version="1.0" encoding="iso-8859-1"?>
<!-- Generator: Adobe Illustrator 19.0.0, SVG Export Plug-In . SVG Version: 6.00 Build 0)  -->
<svg xmlns="http://www.w3.org/2000/svg" xmlns:xlink="http://www.w3.org/1999/xlink" version="1.1" id="Capa_1" x="0px" y="0px" viewBox="0 0 490 490" style="enable-background:new 0 0 490 490;" xml:space="preserve" width="512px" height="512px">
<g>
	<path d="M189.158,372.689c9.824,0,16.344-1.585,19.544-4.74c3.2-3.17,4.8-9.6,4.8-19.275v-52.009h-14.296v50.244   c0,5.742-0.598,9.436-1.795,11.066c-1.196,1.645-3.888,2.467-8.09,2.467c-7.028,0-10.662-2.288-10.871-6.849   c-0.12-1.884-0.165-3.484-0.165-4.815c0-1.391-0.12-3.484-0.344-6.296h-13.638l-0.165,5.578c0,10.318,1.555,17.002,4.666,20.053   C171.917,371.164,178.706,372.689,189.158,372.689z" fill="#bdbdbd"/>
	<path d="M255.477,361.204c-8.209,0-13.234-0.583-15.073-1.764c-1.839-1.181-2.766-4.396-2.766-9.66l-0.045-1.6h-13.922l0.06,2.751   c0,8.763,1.944,14.58,5.817,17.451c3.888,2.871,11.754,4.307,23.612,4.307c13.174,0,21.698-1.466,25.571-4.381   c3.858-2.931,5.787-9.406,5.787-19.41c0-8.135-1.645-13.488-4.935-16.075c-3.29-2.572-10.557-4.172-21.787-4.8   c-9.495-0.508-15.088-1.256-16.778-2.213c-1.705-0.957-2.542-3.813-2.542-8.553c0-4.008,1.032-6.639,3.11-7.895   c2.078-1.256,6.505-1.884,13.279-1.884c5.742,0,9.391,0.553,10.946,1.63c1.54,1.092,2.482,3.753,2.811,7.985   c0,0.329,0.03,0.837,0.105,1.54h13.982v-2.871c0-7.806-1.974-13.04-5.922-15.731c-3.933-2.692-11.574-4.038-22.909-4.038   c-11.963,0-19.948,1.466-23.941,4.396c-3.993,2.916-5.981,8.793-5.981,17.585c0,8.613,1.645,14.221,4.965,16.838   c3.305,2.617,10.931,4.277,22.864,4.965l7.896,0.508c4.456,0.254,7.342,0.987,8.688,2.183c1.346,1.196,2.019,3.604,2.019,7.253   c0,4.935-0.882,8.09-2.647,9.451C265.975,360.532,261.878,361.204,255.477,361.204z" fill="#bdbdbd"/>
	<path d="M77.788,0v265.111H42.189v139.614h0.001l35.59,35.591L77.788,490h370.023V102.422L345.388,0H77.788z M395.793,389.413   H57.501V280.423h338.292V389.413z M353.022,36.962l57.816,57.804h-57.816V36.962z" fill="#bdbdbd"/>
</g>
<g>
</g>
<g>
</g>
<g>
</g>
<g>
</g>
<g>
</g>
<g>
</g>
<g>
</g>
<g>
</g>
<g>
</g>
<g>
</g>
<g>
</g>
<g>
</g>
<g>
</g>
<g>
</g>
<g>
</g>
</svg>
