<?xml version="1.0" encoding="iso-8859-1"?>
<!-- Generator: Adobe Illustrator 18.0.0, SVG Export Plug-In . SVG Version: 6.00 Build 0)  -->
<!DOCTYPE svg PUBLIC "-//W3C//DTD SVG 1.1//EN" "http://www.w3.org/Graphics/SVG/1.1/DTD/svg11.dtd">
<svg xmlns="http://www.w3.org/2000/svg" xmlns:xlink="http://www.w3.org/1999/xlink" version="1.1" id="Capa_1" x="0px" y="0px" viewBox="0 0 303.969 303.969" style="enable-background:new 0 0 303.969 303.969;" xml:space="preserve" width="512px" height="512px">
<g>
	<path d="M206.473,132.942h-4.933v20.75h4.933c13.256,0,13.256-7.678,13.256-10.568   C219.729,140.339,219.729,132.942,206.473,132.942z" fill="#bdbdbd"/>
	<path d="M89.173,132.942H84.24v20.75h4.933c13.255,0,13.255-7.678,13.255-10.568C102.429,140.339,102.429,132.942,89.173,132.942z" fill="#bdbdbd"/>
	<path d="M201.604,0H57.038c-8.313,0-15.054,6.74-15.054,15.053v273.863c0,8.313,6.74,15.053,15.054,15.053h189.893   c8.314,0,15.054-6.74,15.054-15.053V60.381L201.604,0z M89.173,168.204H84.24v11.181c0,4.007-3.249,7.256-7.256,7.256   s-7.256-3.249-7.256-7.256v-53.698c0-4.007,3.249-7.256,7.256-7.256h12.189c17.127,0,27.767,9.462,27.767,24.693   C116.94,158.594,106.301,168.204,89.173,168.204z M179.325,178.282c0,4.007-3.248,7.256-7.256,7.256   c-4.007,0-7.256-3.249-7.256-7.256v-20.631H137.61v20.631c0,4.007-3.248,7.256-7.256,7.256c-4.007,0-7.256-3.249-7.256-7.256   v-53.698c0-4.007,3.249-7.256,7.256-7.256c4.007,0,7.256,3.249,7.256,7.256v18.556h27.204v-18.556c0-4.007,3.248-7.256,7.256-7.256   c4.007,0,7.256,3.249,7.256,7.256V178.282z M206.473,168.204h-4.933v11.181c0,4.007-3.249,7.256-7.256,7.256   c-4.007,0-7.256-3.249-7.256-7.256v-53.698c0-4.007,3.249-7.256,7.256-7.256h12.189c17.127,0,27.768,9.462,27.768,24.693   C234.24,158.594,223.6,168.204,206.473,168.204z M195.97,69.871c-2.65,0-4.798-2.146-4.798-4.797V19.006l50.881,50.865H195.97z" fill="#bdbdbd"/>
</g>
<g>
</g>
<g>
</g>
<g>
</g>
<g>
</g>
<g>
</g>
<g>
</g>
<g>
</g>
<g>
</g>
<g>
</g>
<g>
</g>
<g>
</g>
<g>
</g>
<g>
</g>
<g>
</g>
<g>
</g>
</svg>
